M48
;DRILL file {KiCad (5.0.0-rc3-dev)} date 03/09/19 22:11:39
;FORMAT={-:-/ absolute / inch / decimal}
FMAT,2
INCH,TZ
T1C0.0157
T2C0.0236
T3C0.0256
T4C0.0295
T5C0.0300
T6C0.0394
%
G90
G05
M72
T1
X3.3465Y-5.3445
X3.3465Y-5.6102
X3.376Y-5.0787
X3.5827Y-4.8425
X3.6417Y-4.8425
X3.6614Y-5.5413
X3.6811Y-5.0394
X3.7303Y-5.5413
X3.9665Y-5.6102
X4.0157Y-5.0197
X4.1142Y-4.9409
X4.1142Y-5.2559
X4.1339Y-5.1575
X4.4291Y-5.1575
X4.4291Y-5.4724
X4.6063Y-5.0984
T4
X3.5039Y-5.4528
X3.5039Y-5.5528
X3.5539Y-5.5028
T5
X4.5169Y-4.8685
X4.5169Y-5.0685
X4.6169Y-4.9685
T6
X4.7244Y-5.2937
X4.7244Y-5.3937
X4.7244Y-5.4937
X3.2307Y-4.6457
X3.3307Y-4.6457
X3.4307Y-4.6457
T2
X3.2205Y-4.875G85X3.1929Y-4.875
G05
X3.2205Y-5.2037G85X3.1929Y-5.2037
G05
T3
X3.3287Y-4.9518G85X3.3209Y-4.9518
G05
X3.3287Y-5.127G85X3.3209Y-5.127
G05
T0
M30
