G04 #@! TF.GenerationSoftware,KiCad,Pcbnew,(5.0.0-rc3-dev)*
G04 #@! TF.CreationDate,2019-03-09T22:11:36+00:00*
G04 #@! TF.ProjectId,zener-rng,7A656E65722D726E672E6B696361645F,1.0*
G04 #@! TF.SameCoordinates,Original*
G04 #@! TF.FileFunction,Soldermask,Top*
G04 #@! TF.FilePolarity,Negative*
%FSLAX46Y46*%
G04 Gerber Fmt 4.6, Leading zero omitted, Abs format (unit mm)*
G04 Created by KiCad (PCBNEW (5.0.0-rc3-dev)) date 03/09/19 22:11:36*
%MOMM*%
%LPD*%
G01*
G04 APERTURE LIST*
%ADD10C,1.400000*%
%ADD11R,1.550000X2.200000*%
%ADD12R,1.350000X1.400000*%
%ADD13R,1.400000X1.350000*%
%ADD14R,1.400000X1.000000*%
%ADD15R,1.000000X1.400000*%
%ADD16R,1.750000X0.800000*%
%ADD17O,1.650000X1.400000*%
%ADD18R,2.300000X2.200000*%
%ADD19R,2.300000X1.975000*%
%ADD20O,2.300000X1.400000*%
%ADD21C,2.300000*%
%ADD22R,2.300000X2.300000*%
%ADD23R,4.700000X1.250000*%
%ADD24R,1.250000X1.150000*%
%ADD25C,1.700000*%
%ADD26R,1.700000X1.700000*%
%ADD27R,1.000000X0.780000*%
%ADD28R,0.800000X0.800000*%
%ADD29R,1.950000X1.000000*%
%ADD30R,2.200000X1.550000*%
%ADD31C,1.924000*%
G04 APERTURE END LIST*
D10*
G04 #@! TO.C,TP4*
X98000000Y-143500000D03*
G04 #@! TD*
D11*
G04 #@! TO.C,C1*
X83500000Y-135700000D03*
X86500000Y-135700000D03*
G04 #@! TD*
D12*
G04 #@! TO.C,C4*
X92700000Y-121500000D03*
X94300000Y-121500000D03*
G04 #@! TD*
D13*
G04 #@! TO.C,C5*
X94750000Y-137700000D03*
X94750000Y-139300000D03*
G04 #@! TD*
D12*
G04 #@! TO.C,C8*
X91000000Y-129500000D03*
X92600000Y-129500000D03*
G04 #@! TD*
G04 #@! TO.C,C9*
X106300000Y-135000000D03*
X104700000Y-135000000D03*
G04 #@! TD*
G04 #@! TO.C,C10*
X110800000Y-137000000D03*
X109200000Y-137000000D03*
G04 #@! TD*
D14*
G04 #@! TO.C,D1*
X85650000Y-141000000D03*
X83350000Y-141950000D03*
X83350000Y-140050000D03*
G04 #@! TD*
D15*
G04 #@! TO.C,IC1*
X106050000Y-125650000D03*
X107950000Y-125650000D03*
X107000000Y-123350000D03*
G04 #@! TD*
D16*
G04 #@! TO.C,J1*
X84125000Y-128000000D03*
X84125000Y-128650000D03*
X84125000Y-127350000D03*
X84125000Y-126700000D03*
X84125000Y-129300000D03*
D17*
X84450000Y-130225000D03*
X84450000Y-125775000D03*
D18*
X81450000Y-129150000D03*
X81450000Y-126850000D03*
D19*
X81450000Y-131387500D03*
D20*
X81450000Y-132175000D03*
D19*
X81450000Y-124612500D03*
D20*
X81450000Y-123825000D03*
G04 #@! TD*
D21*
G04 #@! TO.C,J2*
X87140000Y-118000000D03*
X84600000Y-118000000D03*
D22*
X82060000Y-118000000D03*
G04 #@! TD*
D21*
G04 #@! TO.C,J3*
X120000000Y-134460000D03*
X120000000Y-137000000D03*
D22*
X120000000Y-139540000D03*
G04 #@! TD*
D23*
G04 #@! TO.C,L1*
X98000000Y-123275000D03*
X98000000Y-126725000D03*
D24*
X99725000Y-124075000D03*
X96275000Y-124075000D03*
X99725000Y-125925000D03*
X96275000Y-125925000D03*
G04 #@! TD*
D25*
G04 #@! TO.C,Q1*
X90270000Y-139770000D03*
X89000000Y-141040000D03*
D26*
X89000000Y-138500000D03*
G04 #@! TD*
D13*
G04 #@! TO.C,R1*
X81500000Y-136300000D03*
X81500000Y-134700000D03*
G04 #@! TD*
G04 #@! TO.C,R2*
X81500000Y-138200000D03*
X81500000Y-139800000D03*
G04 #@! TD*
D12*
G04 #@! TO.C,R3*
X83700000Y-138000000D03*
X85300000Y-138000000D03*
G04 #@! TD*
G04 #@! TO.C,R4*
X92700000Y-135500000D03*
X94300000Y-135500000D03*
G04 #@! TD*
D13*
G04 #@! TO.C,R5*
X93000000Y-139300000D03*
X93000000Y-137700000D03*
G04 #@! TD*
G04 #@! TO.C,R6*
X98250000Y-139300000D03*
X98250000Y-137700000D03*
G04 #@! TD*
G04 #@! TO.C,R7*
X96500000Y-137700000D03*
X96500000Y-139300000D03*
G04 #@! TD*
G04 #@! TO.C,R8*
X89000000Y-125800000D03*
X89000000Y-124200000D03*
G04 #@! TD*
D12*
G04 #@! TO.C,R9*
X90800000Y-121500000D03*
X89200000Y-121500000D03*
G04 #@! TD*
G04 #@! TO.C,R10*
X109200000Y-142000000D03*
X110800000Y-142000000D03*
G04 #@! TD*
D13*
G04 #@! TO.C,R11*
X109250000Y-140300000D03*
X109250000Y-138700000D03*
G04 #@! TD*
G04 #@! TO.C,R13*
X112500000Y-132700000D03*
X112500000Y-134300000D03*
G04 #@! TD*
G04 #@! TO.C,R14*
X111500000Y-124200000D03*
X111500000Y-125800000D03*
G04 #@! TD*
D12*
G04 #@! TO.C,R16*
X116300000Y-131500000D03*
X114700000Y-131500000D03*
G04 #@! TD*
D10*
G04 #@! TO.C,TP1*
X81500000Y-142000000D03*
G04 #@! TD*
G04 #@! TO.C,TP2*
X87500000Y-143500000D03*
G04 #@! TD*
G04 #@! TO.C,TP3*
X94000000Y-118000000D03*
G04 #@! TD*
G04 #@! TO.C,TP5*
X87500000Y-132000000D03*
G04 #@! TD*
G04 #@! TO.C,TP6*
X87500000Y-121500000D03*
G04 #@! TD*
G04 #@! TO.C,TP7*
X101000000Y-130500000D03*
G04 #@! TD*
G04 #@! TO.C,TP8*
X101000000Y-135000000D03*
G04 #@! TD*
G04 #@! TO.C,TP9*
X108000000Y-134000000D03*
G04 #@! TD*
G04 #@! TO.C,TP10*
X114000000Y-141500000D03*
G04 #@! TD*
G04 #@! TO.C,TP11*
X120000000Y-131500000D03*
G04 #@! TD*
D27*
G04 #@! TO.C,U1*
X94250000Y-126700000D03*
X94250000Y-125900000D03*
X94250000Y-125100000D03*
X94250000Y-124300000D03*
X90750000Y-124300000D03*
X90750000Y-125100000D03*
X90750000Y-125900000D03*
X90750000Y-126700000D03*
D28*
X92500000Y-126100000D03*
X92500000Y-124900000D03*
G04 #@! TD*
D29*
G04 #@! TO.C,U2*
X100800000Y-137595000D03*
X100800000Y-138865000D03*
X100800000Y-140135000D03*
X100800000Y-141405000D03*
X106200000Y-141405000D03*
X106200000Y-140135000D03*
X106200000Y-138865000D03*
X106200000Y-137595000D03*
G04 #@! TD*
D12*
G04 #@! TO.C,C2*
X90800000Y-136000000D03*
X89200000Y-136000000D03*
G04 #@! TD*
D30*
G04 #@! TO.C,C3*
X102500000Y-123000000D03*
X102500000Y-126000000D03*
G04 #@! TD*
D13*
G04 #@! TO.C,C6*
X111000000Y-140300000D03*
X111000000Y-138700000D03*
G04 #@! TD*
D11*
G04 #@! TO.C,C7*
X105000000Y-129000000D03*
X108000000Y-129000000D03*
G04 #@! TD*
D13*
G04 #@! TO.C,R12*
X110500000Y-132700000D03*
X110500000Y-134300000D03*
G04 #@! TD*
D31*
G04 #@! TO.C,R15*
X114730000Y-123660000D03*
X117270000Y-126200000D03*
X114730000Y-128740000D03*
G04 #@! TD*
M02*
